<svg width="180" height="180" viewBox="0 0 180 180" fill="none" xmlns="http://www.w3.org/2000/svg">
<rect width="180" height="180" rx="24" fill="#0A0A0A"/>
<path d="M95.5563 115.339C97.1279 114.998 98.8342 114.296 100.675 113.232C102.516 112.169 104.29 110.445 105.996 108.062C106.759 106.956 107.141 105.998 107.141 105.19C107.141 104.084 106.557 103.53 105.39 103.53C105.3 103.53 105.21 103.552 105.121 103.594C105.076 103.594 105.008 103.594 104.918 103.594C101.73 109.849 96.634 112.977 89.6292 112.977C87.878 112.977 86.2391 112.807 84.7124 112.466C83.2306 112.126 81.8387 111.573 80.5365 110.807C79.2343 110.041 77.9995 109.02 76.8321 107.743C75.6646 106.467 74.542 104.892 73.4644 103.02H73.0603C72.5663 103.02 72.1398 103.126 71.7805 103.339C71.4213 103.552 71.2417 103.935 71.2417 104.488C71.2417 105.211 71.5111 105.977 72.05 106.786C73.0378 108.318 74.093 109.637 75.2156 110.743C76.383 111.849 77.5505 112.786 78.7179 113.551C79.9303 114.275 81.1202 114.828 82.2877 115.211C83.4551 115.594 84.5103 115.828 85.4533 115.913L84.9145 127.977C83.747 128.7 82.5122 129.36 81.21 129.955C79.9528 130.551 78.5159 131.062 76.8994 131.487C75.2829 131.87 73.4419 132.168 71.3764 132.381C69.3558 132.594 67.0209 132.7 64.3717 132.7C61.8571 132.7 59.2303 132.466 56.4913 131.998C53.7523 131.53 51.2377 130.764 48.9477 129.7C46.6577 128.594 44.7493 127.189 43.2227 125.487C41.7409 123.785 41 121.679 41 119.168C41 117.849 41.0674 116.062 41.2021 113.807C41.3368 111.509 41.5164 108.913 41.7409 106.02C42.0103 103.126 42.3022 99.9986 42.6165 96.637C42.9308 93.2754 43.2676 89.8925 43.6268 86.4884C43.986 83.0416 44.3452 79.6375 44.7044 76.2759C45.0637 72.9142 45.4229 69.7867 45.7821 66.8931C46.1413 63.9996 46.4556 61.4252 46.725 59.1699C47.0394 56.9147 47.3088 55.1487 47.5333 53.8722C48.8355 52.7658 50.3172 51.8297 51.9786 51.0637C53.64 50.2978 55.3687 49.7021 57.1648 49.2766C59.0058 48.8085 60.8468 48.4893 62.6878 48.3191C64.5288 48.1064 66.3025 48 68.0087 48C71.0621 48 74.0481 48.3191 76.9668 48.9574C79.9303 49.5957 82.3775 50.4255 84.3083 51.4467L88.0127 63.1911L85.6554 72.5738C85.5656 72.9142 85.4982 73.2334 85.4533 73.5312C85.4084 73.8291 85.3859 74.127 85.3859 74.4248C85.3859 75.8716 86.284 76.6375 88.0801 76.7227L94.4787 51.5105C95.242 51.1276 96.2074 50.7233 97.3749 50.2978C98.5872 49.8723 99.9118 49.4893 101.349 49.1489C102.83 48.8085 104.425 48.5319 106.131 48.3191C107.837 48.1064 109.588 48 111.384 48C114.572 48 117.356 48.2553 119.736 48.7659C122.161 49.234 124.182 50.0212 125.798 51.1276C127.459 52.1914 128.762 53.5956 129.705 55.3402C130.647 57.0849 131.276 59.2337 131.59 61.7869C131.905 64.4677 132.286 67.7016 132.735 71.4887C133.229 75.2759 133.723 79.2971 134.217 83.5523C134.711 87.7649 135.205 92.0414 135.699 96.3817C136.193 100.722 136.619 104.807 136.979 108.637C137.383 112.424 137.697 115.785 137.922 118.722C138.191 121.658 138.326 123.828 138.326 125.232C133.342 130.211 126.157 132.7 116.773 132.7C113.809 132.7 111.093 132.466 108.623 131.998C106.153 131.53 104.02 130.828 102.224 129.891C100.473 128.913 99.0587 127.721 97.981 126.317C96.9483 124.913 96.3421 123.253 96.1625 121.339L95.5563 115.339Z" fill="#FDF07F"/>
</svg>
