<svg width="20" height="20" viewBox="0 0 20 20" fill="none" xmlns="http://www.w3.org/2000/svg">
<path fill-rule="evenodd" clip-rule="evenodd" d="M1.91602 10.2043C1.91602 6.12117 5.22615 2.81104 9.30933 2.81104C10.4029 2.81104 11.4397 3.04815 12.3724 3.47328C12.6236 3.58782 12.9202 3.47698 13.0347 3.22572C13.1493 2.97445 13.0384 2.6779 12.7871 2.56336C11.7269 2.08005 10.5488 1.81104 9.30933 1.81104C4.67387 1.81104 0.916016 5.56889 0.916016 10.2043C0.916016 14.8398 4.67387 18.5977 9.30933 18.5977C13.9448 18.5977 17.7026 14.8398 17.7026 10.2043C17.7026 9.83079 17.6782 9.46269 17.6308 9.10161C17.5948 8.82782 17.3437 8.63501 17.0699 8.67096C16.7962 8.70692 16.6033 8.95801 16.6393 9.23181C16.6811 9.54984 16.7026 9.87445 16.7026 10.2043C16.7026 14.2875 13.3925 17.5977 9.30933 17.5977C5.22615 17.5977 1.91602 14.2875 1.91602 10.2043ZM12.2446 8.13816C12.2446 7.68859 11.8802 7.32414 11.4306 7.32414C10.981 7.32414 10.6165 7.68859 10.6165 8.13816C10.6165 8.58774 10.981 8.95219 11.4306 8.95219C11.8802 8.95219 12.2446 8.58774 12.2446 8.13816ZM7.18903 7.32414C7.6386 7.32414 8.00306 7.68859 8.00306 8.13816C8.00306 8.58774 7.6386 8.95219 7.18903 8.95219C6.73946 8.95219 6.375 8.58774 6.375 8.13816C6.375 7.68859 6.73946 7.32414 7.18903 7.32414ZM6.99811 11.1021C6.9531 10.8297 6.69575 10.6453 6.4233 10.6903C6.15085 10.7353 5.96648 10.9927 6.01148 11.2651C6.15393 12.1274 6.53326 12.7904 7.11369 13.2456C7.68499 13.6936 8.40619 13.9054 9.17836 13.9591L9.19569 13.9603H9.21305C10.0423 13.9603 10.7838 13.7527 11.3573 13.2824C11.9341 12.8095 12.2843 12.1173 12.4156 11.2592C12.4573 10.9863 12.2699 10.7311 11.9969 10.6894C11.7239 10.6476 11.4688 10.8351 11.427 11.108C11.3243 11.7801 11.0682 12.2263 10.7233 12.5092C10.3781 12.7922 9.8881 12.9574 9.23035 12.9602C8.59643 12.9137 8.09427 12.7438 7.73079 12.4587C7.37311 12.1782 7.10547 11.752 6.99811 11.1021ZM15.4961 2.58366C15.4961 2.30752 15.72 2.08366 15.9961 2.08366C16.2722 2.08366 16.4961 2.30752 16.4961 2.58366V4.41699H18.3294C18.6056 4.41699 18.8294 4.64085 18.8294 4.91699C18.8294 5.19313 18.6056 5.41699 18.3294 5.41699H16.4961V7.41699C16.4961 7.69313 16.2722 7.91699 15.9961 7.91699C15.72 7.91699 15.4961 7.69313 15.4961 7.41699V5.41699H13.4961C13.22 5.41699 12.9961 5.19313 12.9961 4.91699C12.9961 4.64085 13.22 4.41699 13.4961 4.41699H15.4961V2.58366Z" fill="#E5E5E5"/>
</svg>
