<svg width="24" height="24" viewBox="0 0 24 24" fill="none" xmlns="http://www.w3.org/2000/svg">
<path fill-rule="evenodd" clip-rule="evenodd" d="M12.5369 3.15634C12.2093 2.94789 11.7907 2.94789 11.4631 3.15634L3.46312 8.24725C3.17468 8.43081 3 8.74901 3 9.09091V20C3 20.5523 3.44772 21 4 21H20C20.5523 21 21 20.5523 21 20V9.09091C21 8.74901 20.8253 8.43081 20.5369 8.24725L12.5369 3.15634ZM5 19V9.63986L12 5.18531L19 9.63986V19H5ZM10 13C9.44772 13 9 13.4477 9 14C9 14.5523 9.44772 15 10 15H14C14.5523 15 15 14.5523 15 14C15 13.4477 14.5523 13 14 13H10Z" fill="#737373"/>
</svg>
