<svg width="20" height="20" viewBox="0 0 20 20" fill="none" xmlns="http://www.w3.org/2000/svg">
<path d="M1.49805 14.237C1.49805 13.8076 1.60888 13.4243 1.83055 13.0872C2.05221 12.7502 2.34826 12.4879 2.71867 12.3006C3.51062 11.9132 4.30694 11.6145 5.10763 11.4045C5.90846 11.1947 6.78853 11.0897 7.74784 11.0897C8.70728 11.0897 9.58735 11.1947 10.388 11.4045C11.1889 11.6145 11.9853 11.9132 12.7772 12.3006C13.1476 12.4879 13.4437 12.7502 13.6653 13.0872C13.887 13.4243 13.9978 13.8076 13.9978 14.237V14.8237C13.9978 15.1591 13.8747 15.454 13.6285 15.7083C13.3822 15.9626 13.0833 16.0897 12.7318 16.0897H2.76388C2.41249 16.0897 2.11367 15.9666 1.86742 15.7204C1.62117 15.474 1.49805 15.1751 1.49805 14.8237V14.237ZM15.3424 16.0897C15.4471 15.8985 15.527 15.6949 15.582 15.4791C15.637 15.2633 15.6645 15.0448 15.6645 14.8237V14.1345C15.6645 13.5876 15.5306 13.0663 15.2628 12.5706C14.9949 12.075 14.6149 11.6498 14.1228 11.2949C14.6816 11.3783 15.2121 11.5072 15.7143 11.6818C16.2164 11.8565 16.6955 12.063 17.1518 12.3012C17.5824 12.5309 17.9149 12.8017 18.1493 13.1135C18.3837 13.4252 18.501 13.7655 18.501 14.1345V14.8237C18.501 15.1751 18.3778 15.474 18.1316 15.7204C17.8853 15.9666 17.5865 16.0897 17.2351 16.0897H15.3424ZM7.74784 9.74349C6.94576 9.74349 6.25916 9.45793 5.68805 8.88682C5.11694 8.31557 4.83138 7.62891 4.83138 6.82682C4.83138 6.02474 5.11694 5.33814 5.68805 4.76703C6.25916 4.19578 6.94576 3.91016 7.74784 3.91016C8.54992 3.91016 9.23659 4.19578 9.80784 4.76703C10.379 5.33814 10.6645 6.02474 10.6645 6.82682C10.6645 7.62891 10.379 8.31557 9.80784 8.88682C9.23659 9.45793 8.54992 9.74349 7.74784 9.74349ZM14.9433 6.82682C14.9433 7.62891 14.6577 8.31557 14.0866 8.88682C13.5155 9.45793 12.8289 9.74349 12.0268 9.74349C11.9328 9.74349 11.8131 9.7328 11.6678 9.71141C11.5224 9.69002 11.4028 9.66654 11.3089 9.64099C11.6375 9.24585 11.8901 8.80752 12.0666 8.32599C12.243 7.84446 12.3312 7.34446 12.3312 6.82599C12.3312 6.30738 12.2412 5.80925 12.0612 5.33161C11.8812 4.85411 11.6304 4.41453 11.3089 4.01286C11.4285 3.97009 11.5481 3.94231 11.6678 3.92953C11.7874 3.91661 11.9071 3.91016 12.0268 3.91016C12.8289 3.91016 13.5155 4.19578 14.0866 4.76703C14.6577 5.33814 14.9433 6.02474 14.9433 6.82682Z" fill="#E5E5E5"/>
</svg>
