<svg width="24" height="24" viewBox="0 0 24 24" fill="none" xmlns="http://www.w3.org/2000/svg">
<path fill-rule="evenodd" clip-rule="evenodd" d="M5 10.5C5 7.46243 7.46243 5 10.5 5C13.5376 5 16 7.46243 16 10.5C16 13.5376 13.5376 16 10.5 16C7.46243 16 5 13.5376 5 10.5ZM10.5 3C6.35786 3 3 6.35786 3 10.5C3 14.6421 6.35786 18 10.5 18C12.2105 18 13.7873 17.4274 15.0491 16.4633L19.293 20.7072C19.6835 21.0977 20.3167 21.0977 20.7072 20.7072C21.0977 20.3167 21.0977 19.6835 20.7072 19.293L16.4633 15.0491C17.4274 13.7873 18 12.2105 18 10.5C18 6.35786 14.6421 3 10.5 3Z" fill="#F5E724"/>
</svg>
