<svg width="100" height="30" viewBox="0 0 100 30" fill="none" xmlns="http://www.w3.org/2000/svg">
<g clip-path="url(#clip0_170_1043)">
<path d="M91.761 13.6058C92.0335 13.6058 92.2351 13.5541 92.3659 13.4508C92.5076 13.3372 92.5784 13.1926 92.5784 13.0171C92.5784 12.8105 92.4967 12.6659 92.3332 12.5833C92.1806 12.5006 91.9953 12.4593 91.7774 12.4593C91.4722 12.4593 91.227 12.542 91.0417 12.7072C90.8673 12.8621 90.7583 13.0739 90.7148 13.3424C90.8237 13.4044 90.9654 13.4663 91.1398 13.5283C91.3142 13.5799 91.5213 13.6058 91.761 13.6058ZM91.9735 24.094C90.4804 24.094 89.129 23.8926 87.9193 23.4898C86.7095 23.0767 85.6741 22.488 84.8132 21.7237C83.9631 20.9491 83.3037 20.0092 82.8351 18.9041C82.3773 17.799 82.1484 16.5545 82.1484 15.1705C82.1484 13.7142 82.3937 12.4284 82.8841 11.3129C83.3854 10.1975 84.0557 9.26276 84.8949 8.50881C85.745 7.75485 86.7313 7.1868 87.8539 6.80466C88.9764 6.42252 90.1589 6.23145 91.4014 6.23145C92.7201 6.23145 93.9081 6.41735 94.9652 6.78917C96.0224 7.15065 96.9215 7.65157 97.6626 8.29192C98.4146 8.93226 98.9923 9.68106 99.3955 10.5383C99.7988 11.3955 100 12.3096 100 13.2804C100 14.1996 99.826 14.9897 99.4772 15.6507C99.1394 16.3117 98.6653 16.8591 98.055 17.2929C97.4447 17.7164 96.7199 18.0314 95.8807 18.2379C95.0415 18.4445 94.1315 18.5478 93.1506 18.5478C92.4095 18.5478 91.6902 18.4652 90.9927 18.2999C90.3061 18.1347 89.7175 17.9126 89.2271 17.6338C89.1726 17.6751 89.1345 17.7319 89.1127 17.8042C89.1018 17.8661 89.0963 17.9229 89.0963 17.9746C89.0963 18.1295 89.2162 18.2844 89.456 18.4393C89.6957 18.5839 90.0063 18.7182 90.3878 18.8421C90.7692 18.9558 91.2052 19.0539 91.6956 19.1365C92.1861 19.2088 92.6765 19.2449 93.1669 19.2449C93.8427 19.2449 94.4584 19.2036 95.0143 19.121C95.5701 19.0281 96.066 18.9196 96.5019 18.7957C96.9488 18.6614 97.3357 18.5168 97.6626 18.3619C97.9896 18.207 98.262 18.0572 98.48 17.9126C98.6217 18.0262 98.7416 18.1966 98.8397 18.4239C98.9487 18.6407 99.0413 18.8835 99.1176 19.152C99.1939 19.4205 99.2484 19.6994 99.2811 19.9886C99.3247 20.2674 99.3465 20.5256 99.3465 20.7632C99.3465 21.0007 99.3301 21.228 99.2974 21.4448C99.2756 21.6514 99.2429 21.8322 99.1993 21.9871C98.8506 22.2659 98.4691 22.5345 98.055 22.7927C97.6408 23.0405 97.1504 23.2626 96.5837 23.4588C96.0169 23.6447 95.3576 23.7945 94.6056 23.9081C93.8645 24.0321 92.9871 24.094 91.9735 24.094Z" fill="#FF7DAC"/>
<path d="M72.4219 2.5291C72.5309 2.46713 72.7052 2.37934 72.945 2.26573C73.1848 2.15212 73.4681 2.04368 73.7951 1.9404C74.133 1.82679 74.5144 1.73383 74.9395 1.66154C75.3645 1.57891 75.8168 1.5376 76.2963 1.5376C77.081 1.5376 77.7513 1.62022 78.3071 1.78547C78.8739 1.95072 79.3371 2.18311 79.6967 2.48263C80.0564 2.77181 80.3179 3.12297 80.4814 3.5361C80.6558 3.94923 80.743 4.40883 80.743 4.91491V15.806C80.743 16.5186 80.8247 17.1331 80.9882 17.6496C81.1517 18.1556 81.4623 18.5429 81.92 18.8115C81.9309 18.8941 81.9364 18.9974 81.9364 19.1213C81.9364 19.2349 81.9364 19.3227 81.9364 19.3847C81.9364 20.8823 81.5331 22.008 80.7266 22.762C79.931 23.516 78.8194 23.8929 77.3916 23.8929C76.7486 23.8929 76.1274 23.8051 75.528 23.6296C74.9286 23.454 74.4 23.1596 73.9422 22.7465C73.4845 22.3334 73.1139 21.7911 72.8306 21.1198C72.5581 20.4485 72.4219 19.6171 72.4219 18.6256V2.5291Z" fill="#B18DF9"/>
<path d="M61.6641 18.641C61.6532 18.6616 61.6423 18.6978 61.6314 18.7494C61.6205 18.801 61.6151 18.8527 61.6151 18.9043C61.6151 19.1212 61.7786 19.271 62.1055 19.3536C62.4434 19.4362 62.8902 19.4775 63.446 19.4775C64.2525 19.4775 65.0427 19.4156 65.8165 19.2916C66.5903 19.1574 67.2497 18.9818 67.7946 18.7649C68.4485 18.9301 68.9989 19.1832 69.4457 19.524C69.8926 19.8545 70.2577 20.2315 70.5411 20.6549C70.8244 21.0784 71.026 21.5328 71.1459 22.0183C71.2767 22.5037 71.3421 22.9839 71.3421 23.459C71.3421 24.4402 71.1132 25.3078 70.6555 26.0617C70.1977 26.8157 69.5547 27.4457 68.7264 27.9518C67.909 28.4682 66.9282 28.8555 65.7838 29.1137C64.6394 29.3823 63.3861 29.5165 62.0238 29.5165C60.6615 29.5165 59.4681 29.3926 58.4436 29.1447C57.43 28.9072 56.5799 28.5767 55.8933 28.1532C55.2176 27.7401 54.7108 27.2546 54.3729 26.6969C54.0351 26.1495 53.8662 25.5608 53.8662 24.9308C53.8662 24.6519 53.8989 24.3834 53.9642 24.1252C54.0405 23.8773 54.1332 23.645 54.2422 23.4281C54.362 23.2112 54.4928 23.0253 54.6345 22.8703C54.7871 22.7051 54.9451 22.5811 55.1086 22.4985C55.6208 22.9117 56.4001 23.2576 57.4464 23.5365C58.4926 23.8154 59.7623 23.9548 61.2554 23.9548C62.0837 23.9548 62.6559 23.9135 62.972 23.8309C63.288 23.7586 63.446 23.614 63.446 23.3971C63.446 23.3248 63.4352 23.268 63.4134 23.2267C63.3916 23.175 63.3698 23.1285 63.348 23.0872C63.0864 23.1389 62.7594 23.1802 62.3671 23.2112C61.9747 23.2422 61.6205 23.2576 61.3045 23.2576C60.3781 23.2576 59.4844 23.1957 58.6234 23.0717C57.7624 22.9375 56.9995 22.7154 56.3347 22.4056C55.6808 22.0957 55.1522 21.6929 54.7489 21.1972C54.3566 20.6911 54.1604 20.0662 54.1604 19.3226C54.1604 18.8165 54.2694 18.3311 54.4874 17.8663C54.7054 17.3912 55.0487 17.0349 55.5173 16.7974C55.2666 16.6528 55.0105 16.4617 54.7489 16.2242C54.4983 15.9763 54.2694 15.6768 54.0623 15.3256C53.8553 14.9744 53.6863 14.5717 53.5556 14.1172C53.4248 13.6628 53.3594 13.1464 53.3594 12.568C53.3594 11.5558 53.5719 10.6521 53.9969 9.85684C54.422 9.06157 55.0105 8.39024 55.7625 7.84284C56.5145 7.29545 57.4082 6.87716 58.4436 6.58797C59.479 6.29878 60.607 6.15419 61.8276 6.15419C62.5251 6.15419 63.1736 6.21616 63.773 6.34009C64.3724 6.4537 64.8901 6.58281 65.3261 6.7274V5.64294C65.5767 5.54999 65.9146 5.46736 66.3396 5.39507C66.7756 5.32277 67.2497 5.28662 67.7619 5.28662C68.2741 5.28662 68.7482 5.32277 69.1842 5.39507C69.6201 5.46736 69.9961 5.60163 70.3122 5.79787C70.6282 5.9941 70.8735 6.2678 71.0478 6.61896C71.2331 6.97011 71.3258 7.42455 71.3258 7.98227C71.3258 8.24048 71.3094 8.49352 71.2767 8.7414C71.244 8.97894 71.1841 9.21649 71.0969 9.45404C70.977 9.79487 70.8081 10.1357 70.5901 10.4765C70.7318 10.807 70.8353 11.1685 70.9007 11.561C70.977 11.9535 71.0151 12.4389 71.0151 13.0173C71.0151 13.9571 70.8299 14.7885 70.4593 15.5115C70.0888 16.2242 69.5711 16.8232 68.9063 17.3086C68.2414 17.794 67.4458 18.1607 66.5195 18.4086C65.5931 18.6564 64.5686 18.7804 63.446 18.7804C63.0973 18.7804 62.754 18.7649 62.4161 18.7339C62.0783 18.7029 61.8276 18.6719 61.6641 18.641ZM62.8412 12.506C62.8412 12.3304 62.803 12.1962 62.7267 12.1032C62.6613 11.9999 62.5524 11.9483 62.3998 11.9483C62.2908 11.9483 62.1927 11.9844 62.1055 12.0567C62.0292 12.1187 61.9911 12.2375 61.9911 12.4131V14.0088C62.0892 14.0811 62.1982 14.1172 62.318 14.1172C62.5578 14.1172 62.7049 14.0501 62.7594 13.9158C62.8139 13.7712 62.8412 13.5492 62.8412 13.2496V12.506Z" fill="#73BCFF"/>
<path d="M37.7475 6.68041C38.2052 6.68041 38.5867 6.75787 38.8919 6.91279C39.2079 7.06771 39.4858 7.26395 39.7256 7.5015C39.2461 7.92495 39.0063 8.27611 39.0063 8.55497C39.0063 8.67891 39.0499 8.79252 39.1371 8.8958C39.2243 8.98876 39.3714 9.03523 39.5785 9.03523C39.7964 8.67375 40.0798 8.32775 40.4286 7.99725C40.7882 7.66675 41.2024 7.37756 41.671 7.12968C42.1506 6.88181 42.6791 6.68557 43.2568 6.54098C43.8453 6.38606 44.472 6.30859 45.1368 6.30859C45.9215 6.30859 46.7171 6.40671 47.5236 6.60295C48.341 6.79918 49.0766 7.14001 49.7305 7.62544C50.3845 8.11086 50.9185 8.77186 51.3326 9.60845C51.7468 10.445 51.9539 11.4985 51.9539 12.7689C51.9539 13.2336 51.943 13.7552 51.9212 14.3336C51.9103 14.912 51.9048 15.449 51.9048 15.9448C51.9048 16.6574 51.9866 17.2461 52.15 17.7109C52.3135 18.1757 52.6241 18.5423 53.0819 18.8108C53.0928 18.8935 53.0982 18.9968 53.0982 19.1207C53.0982 19.2343 53.0982 19.3221 53.0982 19.3841C53.0982 20.1174 52.9783 20.768 52.7386 21.3361C52.4988 21.8938 52.1718 22.3637 51.7577 22.7459C51.3435 23.128 50.8585 23.4172 50.3027 23.6135C49.7578 23.7994 49.1747 23.8923 48.5535 23.8923C47.8996 23.8923 47.2729 23.8045 46.6735 23.6289C46.085 23.4637 45.5618 23.19 45.1041 22.8079C44.6572 22.4154 44.2976 21.9093 44.0251 21.2896C43.7635 20.6596 43.6328 19.8901 43.6328 18.9813C43.6328 18.4958 43.6491 18.0362 43.6818 17.6025C43.7254 17.1687 43.769 16.7659 43.8126 16.3941C43.8671 16.0119 43.9161 15.6608 43.9597 15.3406C44.0033 15.0204 44.0251 14.7261 44.0251 14.4575C44.0251 13.9618 43.9652 13.6261 43.8453 13.4505C43.7363 13.2646 43.5565 13.1717 43.3058 13.1717C43.1423 13.1717 42.9897 13.213 42.8481 13.2956L43.0606 15.8208C43.0061 16.1307 42.957 16.4457 42.9135 16.7659C42.8808 17.0757 42.8535 17.3701 42.8317 17.6489C42.8099 17.9278 42.7936 18.1808 42.7827 18.4081C42.7718 18.6353 42.7663 18.8212 42.7663 18.9658C42.7663 19.7714 42.8481 20.4375 43.0115 20.9643C43.1859 21.491 43.3821 21.9455 43.6001 22.3276C43.1205 22.8027 42.4939 23.1848 41.7201 23.474C40.9572 23.7529 40.0853 23.8923 39.1044 23.8923C38.6139 23.8923 38.1126 23.8252 37.6004 23.6909C37.099 23.5566 36.6413 23.3552 36.2271 23.0867C35.8239 22.8079 35.4915 22.467 35.2299 22.0642C34.9684 21.6511 34.8376 21.1657 34.8376 20.608V13.1097C34.5106 12.6759 34.2654 12.1853 34.1019 11.6379C33.9493 11.0905 33.873 10.5173 33.873 9.91829C33.873 9.42254 33.9493 8.87515 34.1019 8.27611C34.2654 7.67708 34.5106 7.14518 34.8376 6.68041H37.7475Z" fill="#32CBD1"/>
<path d="M24.3576 8.71028C24.5756 8.57601 24.7936 8.46757 25.0115 8.38494C25.2295 8.30231 25.4638 8.19903 25.7145 8.0751C25.5074 7.97181 25.2949 7.82722 25.0769 7.64131C24.859 7.4554 24.6573 7.23335 24.4721 6.97514C24.2977 6.70661 24.1506 6.40193 24.0307 6.0611C23.9217 5.72027 23.8672 5.33813 23.8672 4.91467C23.8672 4.25367 23.9871 3.65464 24.2268 3.11757C24.4775 2.57018 24.8154 2.10541 25.2404 1.72327C25.6655 1.3308 26.1613 1.02612 26.7281 0.809224C27.2948 0.592333 27.9051 0.483887 28.559 0.483887C29.2239 0.483887 29.8342 0.597497 30.39 0.824716C30.9567 1.05194 31.4472 1.36178 31.8613 1.75425C32.2755 2.14672 32.597 2.61665 32.8259 3.16405C33.0656 3.70111 33.1855 4.28465 33.1855 4.91467C33.1855 5.45174 33.0874 5.95266 32.8912 6.41742C32.706 6.87186 32.4553 7.27983 32.1392 7.64131C31.8232 8.0028 31.4526 8.30748 31.0276 8.55536C30.6025 8.7929 30.1611 8.95815 29.7034 9.05111C29.7034 9.20603 29.7361 9.34546 29.8015 9.4694C29.8778 9.58301 30.0031 9.63981 30.1775 9.63981C30.7224 9.63981 31.2891 9.43325 31.8777 9.02012C31.9104 9.04078 31.9649 9.07693 32.0412 9.12857C32.1174 9.18021 32.1992 9.24218 32.2864 9.31448C32.3736 9.38677 32.4553 9.45907 32.5316 9.53137C32.6079 9.59334 32.6569 9.63981 32.6787 9.6708V15.8057C32.6787 16.5184 32.7605 17.1329 32.9239 17.6493C33.0874 18.1554 33.398 18.5427 33.8558 18.8112C33.8667 18.8939 33.8721 18.9971 33.8721 19.1211C33.8721 19.2347 33.8721 19.3225 33.8721 19.3844C33.8721 20.1694 33.7577 20.8459 33.5288 21.4139C33.2999 21.982 32.9784 22.4519 32.5643 22.8237C32.1501 23.1852 31.6543 23.4537 31.0766 23.6293C30.5099 23.8049 29.8887 23.8927 29.213 23.8927C28.6898 23.8927 28.1394 23.8101 27.5618 23.6448C26.9951 23.4796 26.472 23.2007 25.9924 22.8082C25.5238 22.4158 25.1314 21.8942 24.8154 21.2435C24.5102 20.5825 24.3576 19.7614 24.3576 18.7802V8.71028Z" fill="#63DFA1"/>
<path d="M13.2418 19.6793C13.6233 19.5967 14.0374 19.4263 14.4843 19.1681C14.9311 18.9098 15.3616 18.4916 15.7758 17.9132C15.961 17.6446 16.0537 17.4123 16.0537 17.216C16.0537 16.9475 15.912 16.8132 15.6286 16.8132C15.6068 16.8132 15.585 16.8184 15.5632 16.8287C15.5523 16.8287 15.536 16.8287 15.5142 16.8287C14.7404 18.347 13.5034 19.1061 11.8032 19.1061C11.3782 19.1061 10.9804 19.0648 10.6098 18.9821C10.2502 18.8995 9.9123 18.7653 9.59624 18.5793C9.28018 18.3934 8.98046 18.1456 8.6971 17.8357C8.41374 17.5259 8.14127 17.1437 7.8797 16.6893H7.78162C7.66173 16.6893 7.55819 16.7151 7.47101 16.7668C7.38382 16.8184 7.34022 16.9113 7.34022 17.0456C7.34022 17.2212 7.40561 17.4071 7.5364 17.6033C7.77617 17.9751 8.03228 18.2953 8.30475 18.5639C8.58811 18.8324 8.87148 19.0596 9.15484 19.2455C9.44911 19.4211 9.73792 19.5554 10.0213 19.6483C10.3046 19.7413 10.5608 19.7981 10.7896 19.8187L10.6589 22.7468C10.3755 22.9223 10.0758 23.0824 9.75972 23.227C9.45455 23.3716 9.1058 23.4956 8.71345 23.5988C8.3211 23.6918 7.87425 23.7641 7.37292 23.8157C6.88248 23.8674 6.31575 23.8932 5.67273 23.8932C5.06241 23.8932 4.42484 23.8364 3.76002 23.7228C3.09521 23.6092 2.48489 23.4233 1.92906 23.1651C1.37323 22.8965 0.910035 22.5557 0.539482 22.1426C0.179827 21.7294 0 21.2182 0 20.6088C0 20.2887 0.0163479 19.8549 0.0490438 19.3075C0.0817397 18.7498 0.125334 18.1197 0.179827 17.4174C0.245219 16.7151 0.31606 15.956 0.39235 15.1401C0.468641 14.3241 0.55038 13.503 0.637569 12.6768C0.724758 11.8402 0.811947 11.014 0.899136 10.198C0.986325 9.38211 1.07351 8.62299 1.1607 7.92067C1.24789 7.21835 1.32418 6.5935 1.38957 6.04611C1.46586 5.49871 1.53126 5.07009 1.58575 4.76025C1.90181 4.49172 2.26146 4.2645 2.66471 4.07859C3.06796 3.89268 3.48756 3.74809 3.9235 3.64481C4.37035 3.5312 4.81719 3.45373 5.26403 3.41242C5.71088 3.36078 6.14137 3.33496 6.55552 3.33496C7.29663 3.33496 8.02139 3.41242 8.7298 3.56734C9.44911 3.72227 10.0431 3.92367 10.5117 4.17154L11.4109 7.02212L10.8387 9.29948C10.8169 9.38211 10.8005 9.45957 10.7896 9.53187C10.7787 9.60416 10.7733 9.67646 10.7733 9.74876C10.7733 10.0999 10.9913 10.2858 11.4272 10.3065L12.9803 4.18704C13.1655 4.09408 13.3999 3.99596 13.6832 3.89268C13.9775 3.7894 14.299 3.69645 14.6477 3.61382C15.0074 3.5312 15.3943 3.46406 15.8085 3.41242C16.2226 3.36078 16.6476 3.33496 17.0836 3.33496C17.8574 3.33496 18.5331 3.39693 19.1107 3.52087C19.6993 3.63448 20.1897 3.82555 20.582 4.09408C20.9853 4.35229 21.3014 4.69312 21.5302 5.11657C21.7591 5.54003 21.9117 6.0616 21.988 6.68129C22.0643 7.33196 22.1569 8.11691 22.2659 9.03611C22.3858 9.95532 22.5057 10.9313 22.6255 11.9642C22.7454 12.9866 22.8653 14.0246 22.9852 15.0781C23.1051 16.1316 23.2086 17.1231 23.2958 18.0526C23.3939 18.9718 23.4702 19.7877 23.5247 20.5004C23.5901 21.213 23.6228 21.7398 23.6228 22.0806C22.413 23.289 20.6692 23.8932 18.3914 23.8932C17.6721 23.8932 17.0127 23.8364 16.4133 23.7228C15.8139 23.6092 15.2962 23.4388 14.8603 23.2115C14.4352 22.974 14.0919 22.6848 13.8304 22.344C13.5797 22.0031 13.4326 21.6003 13.389 21.1356L13.2418 19.6793Z" fill="#FDF07F"/>
</g>
<defs>
<clipPath id="clip0_170_1043">
<rect width="100" height="30" fill="white"/>
</clipPath>
</defs>
</svg>
