<svg width="100" height="30" viewBox="0 0 100 30" fill="none" xmlns="http://www.w3.org/2000/svg">
<g clip-path="url(#clip0_246_1136)">
<g clip-path="url(#clip1_246_1136)">
<path d="M91.761 13.6057C92.0335 13.6057 92.2351 13.5541 92.3659 13.4508C92.5075 13.3372 92.5784 13.1926 92.5784 13.017C92.5784 12.8105 92.4966 12.6659 92.3332 12.5833C92.1806 12.5006 91.9953 12.4593 91.7773 12.4593C91.4722 12.4593 91.227 12.5419 91.0417 12.7072C90.8673 12.8621 90.7583 13.0738 90.7147 13.3424C90.8237 13.4043 90.9654 13.4663 91.1398 13.5283C91.3142 13.5799 91.5212 13.6057 91.761 13.6057ZM91.9735 24.094C90.4804 24.094 89.129 23.8926 87.9192 23.4898C86.7095 23.0766 85.6741 22.4879 84.8131 21.7237C83.9631 20.949 83.3037 20.0092 82.835 18.9041C82.3773 17.799 82.1484 16.5544 82.1484 15.1705C82.1484 13.7142 82.3937 12.4283 82.8841 11.3129C83.3854 10.1975 84.0557 9.26275 84.8949 8.5088C85.745 7.75485 86.7313 7.1868 87.8538 6.80466C88.9764 6.42252 90.1589 6.23145 91.4013 6.23145C92.7201 6.23145 93.908 6.41735 94.9652 6.78916C96.0223 7.15065 96.9215 7.65156 97.6626 8.29191C98.4146 8.93225 98.9922 9.68104 99.3955 10.5383C99.7987 11.3955 100 12.3096 100 13.2804C100 14.1996 99.8259 14.9897 99.4772 15.6507C99.1393 16.3117 98.6652 16.8591 98.0549 17.2929C97.4446 17.7163 96.7199 18.0313 95.8807 18.2379C95.0415 18.4445 94.1314 18.5478 93.1506 18.5478C92.4095 18.5478 91.6902 18.4651 90.9926 18.2999C90.306 18.1346 89.7175 17.9126 89.2271 17.6337C89.1726 17.675 89.1344 17.7318 89.1126 17.8041C89.1017 17.8661 89.0963 17.9229 89.0963 17.9745C89.0963 18.1295 89.2162 18.2844 89.4559 18.4393C89.6957 18.5839 90.0063 18.7182 90.3878 18.8421C90.7692 18.9557 91.2052 19.0538 91.6956 19.1365C92.186 19.2088 92.6765 19.2449 93.1669 19.2449C93.8426 19.2449 94.4584 19.2036 95.0142 19.121C95.5701 19.028 96.0659 18.9196 96.5019 18.7956C96.9487 18.6614 97.3356 18.5168 97.6626 18.3618C97.9895 18.2069 98.262 18.0572 98.48 17.9126C98.6217 18.0262 98.7415 18.1966 98.8396 18.4238C98.9486 18.6407 99.0413 18.8834 99.1175 19.152C99.1938 19.4205 99.2483 19.6993 99.281 19.9885C99.3246 20.2674 99.3464 20.5256 99.3464 20.7631C99.3464 21.0007 99.3301 21.2279 99.2974 21.4448C99.2756 21.6514 99.2429 21.8321 99.1993 21.987C98.8505 22.2659 98.4691 22.5344 98.0549 22.7926C97.6408 23.0405 97.1503 23.2626 96.5836 23.4588C96.0169 23.6447 95.3575 23.7945 94.6055 23.9081C93.8644 24.032 92.9871 24.094 91.9735 24.094Z" fill="#A3A3A3"/>
<path d="M72.4219 2.5291C72.5309 2.46713 72.7052 2.37934 72.945 2.26573C73.1848 2.15212 73.4681 2.04368 73.7951 1.9404C74.133 1.82679 74.5144 1.73383 74.9394 1.66154C75.3645 1.57891 75.8168 1.5376 76.2963 1.5376C77.081 1.5376 77.7513 1.62022 78.3071 1.78547C78.8738 1.95072 79.337 2.18311 79.6967 2.48262C80.0563 2.77181 80.3179 3.12297 80.4814 3.53609C80.6558 3.94922 80.7429 4.40882 80.7429 4.9149V15.8059C80.7429 16.5186 80.8247 17.1331 80.9882 17.6495C81.1516 18.1556 81.4623 18.5429 81.92 18.8114C81.9309 18.894 81.9363 18.9973 81.9363 19.1213C81.9363 19.2349 81.9363 19.3227 81.9363 19.3846C81.9363 20.8822 81.5331 22.008 80.7266 22.7619C79.931 23.5159 78.8193 23.8929 77.3916 23.8929C76.7486 23.8929 76.1274 23.8051 75.528 23.6295C74.9286 23.4539 74.4 23.1596 73.9422 22.7464C73.4845 22.3333 73.1139 21.7911 72.8306 21.1198C72.5581 20.4484 72.4219 19.617 72.4219 18.6255V2.5291Z" fill="#A3A3A3"/>
<path d="M61.6641 18.6404C61.6532 18.6611 61.6423 18.6972 61.6314 18.7489C61.6205 18.8005 61.6151 18.8521 61.6151 18.9038C61.6151 19.1207 61.7785 19.2704 62.1055 19.3531C62.4433 19.4357 62.8902 19.477 63.446 19.477C64.2525 19.477 65.0427 19.415 65.8165 19.2911C66.5903 19.1568 67.2496 18.9813 67.7946 18.7644C68.4485 18.9296 68.9988 19.1826 69.4457 19.5235C69.8925 19.854 70.2576 20.231 70.541 20.6544C70.8244 21.0779 71.026 21.5323 71.1459 22.0177C71.2767 22.5031 71.342 22.9834 71.342 23.4585C71.342 24.4397 71.1132 25.3072 70.6554 26.0612C70.1977 26.8151 69.5547 27.4452 68.7264 27.9512C67.909 28.4676 66.9281 28.855 65.7838 29.1132C64.6394 29.3817 63.3861 29.516 62.0238 29.516C60.6614 29.516 59.468 29.392 58.4436 29.1441C57.43 28.9066 56.5799 28.5761 55.8933 28.1526C55.2176 27.7395 54.7108 27.2541 54.3729 26.6964C54.0351 26.149 53.8662 25.5603 53.8662 24.9303C53.8662 24.6514 53.8989 24.3829 53.9642 24.1247C54.0405 23.8768 54.1332 23.6444 54.2422 23.4275C54.362 23.2106 54.4928 23.0247 54.6345 22.8698C54.7871 22.7045 54.9451 22.5806 55.1086 22.498C55.6208 22.9111 56.4001 23.2571 57.4463 23.536C58.4926 23.8148 59.7623 23.9543 61.2554 23.9543C62.0837 23.9543 62.6559 23.9129 62.9719 23.8303C63.288 23.758 63.446 23.6134 63.446 23.3965C63.446 23.3242 63.4351 23.2674 63.4133 23.2261C63.3915 23.1745 63.3697 23.128 63.3479 23.0867C63.0864 23.1383 62.7594 23.1796 62.3671 23.2106C61.9747 23.2416 61.6205 23.2571 61.3044 23.2571C60.3781 23.2571 59.4844 23.1951 58.6234 23.0712C57.7624 22.9369 56.9995 22.7149 56.3347 22.405C55.6808 22.0952 55.1522 21.6924 54.7489 21.1966C54.3566 20.6906 54.1604 20.0657 54.1604 19.3221C54.1604 18.816 54.2694 18.3306 54.4874 17.8658C54.7054 17.3907 55.0487 17.0344 55.5173 16.7968C55.2666 16.6523 55.0105 16.4612 54.7489 16.2236C54.4983 15.9758 54.2694 15.6762 54.0623 15.3251C53.8553 14.9739 53.6863 14.5711 53.5555 14.1167C53.4248 13.6623 53.3594 13.1458 53.3594 12.5675C53.3594 11.5553 53.5719 10.6516 53.9969 9.85634C54.422 9.06107 55.0105 8.38974 55.7625 7.84235C56.5145 7.29496 57.4082 6.87667 58.4436 6.58748C59.4789 6.29829 60.6069 6.1537 61.8276 6.1537C62.5251 6.1537 63.1736 6.21567 63.773 6.3396C64.3724 6.45321 64.8901 6.58231 65.326 6.72691V5.64245C65.5767 5.5495 65.9145 5.46688 66.3396 5.39458C66.7755 5.32228 67.2496 5.28613 67.7619 5.28613C68.2741 5.28613 68.7482 5.32228 69.1841 5.39458C69.6201 5.46688 69.9961 5.60114 70.3121 5.79738C70.6282 5.99361 70.8734 6.26731 71.0478 6.61846C71.2331 6.96962 71.3257 7.42406 71.3257 7.98178C71.3257 8.23998 71.3093 8.49302 71.2767 8.7409C71.244 8.97844 71.184 9.21599 71.0968 9.45354C70.9769 9.79437 70.808 10.1352 70.59 10.476C70.7317 10.8065 70.8353 11.168 70.9007 11.5605C70.9769 11.9529 71.0151 12.4384 71.0151 13.0167C71.0151 13.9566 70.8298 14.788 70.4593 15.511C70.0887 16.2236 69.571 16.8227 68.9062 17.3081C68.2414 17.7935 67.4458 18.1602 66.5194 18.408C65.593 18.6559 64.5686 18.7799 63.446 18.7799C63.0973 18.7799 62.754 18.7644 62.4161 18.7334C62.0782 18.7024 61.8276 18.6714 61.6641 18.6404ZM62.8411 12.5055C62.8411 12.3299 62.803 12.1957 62.7267 12.1027C62.6613 11.9994 62.5523 11.9478 62.3998 11.9478C62.2908 11.9478 62.1927 11.9839 62.1055 12.0562C62.0292 12.1182 61.9911 12.237 61.9911 12.4126V14.0082C62.0891 14.0805 62.1981 14.1167 62.318 14.1167C62.5578 14.1167 62.7049 14.0496 62.7594 13.9153C62.8139 13.7707 62.8411 13.5486 62.8411 13.2491V12.5055Z" fill="#A3A3A3"/>
<path d="M37.7475 6.68041C38.2052 6.68041 38.5867 6.75787 38.8918 6.91279C39.2079 7.06771 39.4858 7.26395 39.7256 7.50149C39.2461 7.92495 39.0063 8.2761 39.0063 8.55496C39.0063 8.6789 39.0499 8.79251 39.1371 8.89579C39.2243 8.98875 39.3714 9.03522 39.5785 9.03522C39.7964 8.67374 40.0798 8.32775 40.4285 7.99725C40.7882 7.66674 41.2023 7.37756 41.671 7.12968C42.1505 6.88181 42.6791 6.68557 43.2567 6.54098C43.8453 6.38605 44.4719 6.30859 45.1367 6.30859C45.9214 6.30859 46.717 6.40671 47.5235 6.60295C48.3409 6.79918 49.0766 7.14001 49.7305 7.62543C50.3844 8.11085 50.9184 8.77186 51.3326 9.60844C51.7467 10.445 51.9538 11.4985 51.9538 12.7688C51.9538 13.2336 51.9429 13.7552 51.9211 14.3336C51.9102 14.9119 51.9048 15.449 51.9048 15.9448C51.9048 16.6574 51.9865 17.2461 52.15 17.7109C52.3135 18.1756 52.6241 18.5423 53.0818 18.8108C53.0927 18.8934 53.0982 18.9967 53.0982 19.1207C53.0982 19.2343 53.0982 19.3221 53.0982 19.384C53.0982 20.1173 52.9783 20.768 52.7385 21.336C52.4987 21.8938 52.1718 22.3637 51.7576 22.7458C51.3435 23.128 50.8585 23.4172 50.3027 23.6134C49.7577 23.7993 49.1747 23.8923 48.5534 23.8923C47.8995 23.8923 47.2729 23.8045 46.6734 23.6289C46.0849 23.4636 45.5618 23.1899 45.104 22.8078C44.6572 22.4153 44.2975 21.9093 44.0251 21.2896C43.7635 20.6595 43.6327 19.8901 43.6327 18.9812C43.6327 18.4958 43.6491 18.0362 43.6818 17.6024C43.7254 17.1686 43.769 16.7658 43.8126 16.394C43.8671 16.0119 43.9161 15.6607 43.9597 15.3406C44.0033 15.0204 44.0251 14.726 44.0251 14.4575C44.0251 13.9617 43.9651 13.6261 43.8453 13.4505C43.7363 13.2646 43.5564 13.1716 43.3058 13.1716C43.1423 13.1716 42.9897 13.213 42.848 13.2956L43.0606 15.8208C43.0061 16.1307 42.957 16.4457 42.9134 16.7658C42.8807 17.0757 42.8535 17.37 42.8317 17.6489C42.8099 17.9278 42.7935 18.1808 42.7826 18.408C42.7717 18.6352 42.7663 18.8211 42.7663 18.9657C42.7663 19.7713 42.848 20.4375 43.0115 20.9642C43.1859 21.491 43.3821 21.9454 43.6 22.3275C43.1205 22.8026 42.4938 23.1848 41.72 23.474C40.9571 23.7528 40.0852 23.8923 39.1044 23.8923C38.6139 23.8923 38.1126 23.8251 37.6004 23.6909C37.099 23.5566 36.6413 23.3552 36.2271 23.0867C35.8239 22.8078 35.4915 22.467 35.2299 22.0642C34.9684 21.6511 34.8376 21.1656 34.8376 20.6079V13.1097C34.5106 12.6759 34.2654 12.1853 34.1019 11.6379C33.9493 11.0905 33.873 10.5173 33.873 9.91828C33.873 9.42253 33.9493 8.87514 34.1019 8.2761C34.2654 7.67707 34.5106 7.14517 34.8376 6.68041H37.7475Z" fill="#A3A3A3"/>
<path d="M24.3576 8.71025C24.5756 8.57599 24.7936 8.46754 25.0115 8.38492C25.2295 8.30229 25.4638 8.19901 25.7145 8.07507C25.5074 7.97179 25.2949 7.8272 25.0769 7.64129C24.859 7.45538 24.6573 7.23333 24.4721 6.97512C24.2977 6.70659 24.1506 6.40191 24.0307 6.06108C23.9217 5.72026 23.8672 5.33811 23.8672 4.91466C23.8672 4.25366 23.9871 3.65463 24.2268 3.11756C24.4775 2.57017 24.8154 2.10541 25.2404 1.72326C25.6655 1.33079 26.1613 1.02611 26.7281 0.809223C27.2948 0.592332 27.9051 0.483887 28.559 0.483887C29.2238 0.483887 29.8342 0.597496 30.39 0.824715C30.9567 1.05193 31.4472 1.36178 31.8613 1.75425C32.2754 2.14672 32.597 2.61665 32.8258 3.16404C33.0656 3.7011 33.1855 4.28464 33.1855 4.91466C33.1855 5.45172 33.0874 5.95264 32.8912 6.4174C32.7059 6.87184 32.4553 7.2798 32.1392 7.64129C31.8232 8.00277 31.4526 8.30745 31.0276 8.55533C30.6025 8.79288 30.1611 8.95813 29.7034 9.05108C29.7034 9.206 29.7361 9.34543 29.8015 9.46937C29.8778 9.58298 30.0031 9.63979 30.1775 9.63979C30.7224 9.63979 31.2891 9.43322 31.8776 9.0201C31.9103 9.04075 31.9648 9.0769 32.0411 9.12854C32.1174 9.18018 32.1992 9.24215 32.2863 9.31445C32.3735 9.38675 32.4553 9.45904 32.5316 9.53134C32.6079 9.59331 32.6569 9.63979 32.6787 9.67077V15.8057C32.6787 16.5183 32.7604 17.1329 32.9239 17.6493C33.0874 18.1553 33.398 18.5426 33.8557 18.8112C33.8666 18.8938 33.8721 18.9971 33.8721 19.121C33.8721 19.2346 33.8721 19.3224 33.8721 19.3844C33.8721 20.1693 33.7577 20.8458 33.5288 21.4139C33.2999 21.9819 32.9784 22.4518 32.5643 22.8237C32.1501 23.1851 31.6542 23.4537 31.0766 23.6293C30.5099 23.8048 29.8887 23.8926 29.2129 23.8926C28.6898 23.8926 28.1394 23.81 27.5618 23.6447C26.9951 23.4795 26.472 23.2006 25.9924 22.8082C25.5238 22.4157 25.1314 21.8941 24.8154 21.2435C24.5102 20.5825 24.3576 19.7614 24.3576 18.7802V8.71025Z" fill="#A3A3A3"/>
<path d="M13.2418 19.6792C13.6232 19.5966 14.0374 19.4262 14.4842 19.168C14.9311 18.9098 15.3616 18.4915 15.7757 17.9131C15.961 17.6446 16.0536 17.4122 16.0536 17.216C16.0536 16.9475 15.9119 16.8132 15.6286 16.8132C15.6068 16.8132 15.585 16.8184 15.5632 16.8287C15.5523 16.8287 15.5359 16.8287 15.5141 16.8287C14.7403 18.3469 13.5034 19.106 11.8032 19.106C11.3781 19.106 10.9803 19.0647 10.6098 18.9821C10.2501 18.8995 9.91227 18.7652 9.59621 18.5793C9.28015 18.3934 8.98044 18.1455 8.69707 17.8357C8.41371 17.5258 8.14125 17.1437 7.87968 16.6892H7.78159C7.66171 16.6892 7.55817 16.7151 7.47098 16.7667C7.38379 16.8184 7.3402 16.9113 7.3402 17.0456C7.3402 17.2211 7.40559 17.4071 7.53637 17.6033C7.77614 17.9751 8.03226 18.2953 8.30472 18.5638C8.58809 18.8323 8.87145 19.0596 9.15481 19.2455C9.44908 19.421 9.73789 19.5553 10.0213 19.6483C10.3046 19.7412 10.5607 19.798 10.7896 19.8187L10.6588 22.7467C10.3755 22.9223 10.0757 23.0824 9.75969 23.227C9.45453 23.3716 9.10577 23.4955 8.71342 23.5988C8.32107 23.6917 7.87423 23.764 7.37289 23.8157C6.88246 23.8673 6.31573 23.8931 5.67272 23.8931C5.06239 23.8931 4.42483 23.8363 3.76001 23.7227C3.0952 23.6091 2.48488 23.4232 1.92905 23.165C1.37322 22.8965 0.910032 22.5556 0.53948 22.1425C0.179827 21.7294 0 21.2181 0 20.6088C0 20.2886 0.0163479 19.8548 0.0490436 19.3074C0.0817394 18.7497 0.125334 18.1197 0.179827 17.4174C0.245218 16.7151 0.316059 15.956 0.392349 15.14C0.468639 14.3241 0.550379 13.503 0.637567 12.6768C0.724756 11.8402 0.811945 11.0139 0.899134 10.198C0.986322 9.38209 1.07351 8.62297 1.1607 7.92066C1.24789 7.21834 1.32418 6.59349 1.38957 6.0461C1.46586 5.49871 1.53125 5.07009 1.58574 4.76024C1.9018 4.49171 2.26146 4.26449 2.6647 4.07859C3.06795 3.89268 3.48755 3.74809 3.92349 3.64481C4.37033 3.5312 4.81718 3.45373 5.26402 3.41242C5.71086 3.36078 6.14135 3.33496 6.5555 3.33496C7.2966 3.33496 8.02136 3.41242 8.72977 3.56734C9.44908 3.72227 10.043 3.92367 10.5117 4.17154L11.4108 7.02211L10.8386 9.29946C10.8168 9.38209 10.8005 9.45955 10.7896 9.53185C10.7787 9.60414 10.7733 9.67644 10.7733 9.74874C10.7733 10.0999 10.9912 10.2858 11.4272 10.3065L12.9802 4.18703C13.1655 4.09408 13.3998 3.99596 13.6832 3.89268C13.9774 3.7894 14.2989 3.69645 14.6477 3.61382C15.0074 3.5312 15.3943 3.46406 15.8084 3.41242C16.2225 3.36078 16.6476 3.33496 17.0835 3.33496C17.8573 3.33496 18.533 3.39693 19.1107 3.52087C19.6992 3.63448 20.1896 3.82555 20.582 4.09408C20.9852 4.35228 21.3013 4.69311 21.5302 5.11657C21.759 5.54002 21.9116 6.06159 21.9879 6.68128C22.0642 7.33195 22.1568 8.11689 22.2658 9.0361C22.3857 9.9553 22.5056 10.9313 22.6255 11.9641C22.7454 12.9866 22.8652 14.0246 22.9851 15.0781C23.105 16.1315 23.2085 17.123 23.2957 18.0526C23.3938 18.9718 23.4701 19.7877 23.5246 20.5003C23.59 21.213 23.6227 21.7397 23.6227 22.0805C22.4129 23.2889 20.6692 23.8931 18.3914 23.8931C17.6721 23.8931 17.0127 23.8363 16.4133 23.7227C15.8139 23.6091 15.2962 23.4387 14.8602 23.2115C14.4352 22.9739 14.0919 22.6847 13.8303 22.3439C13.5796 22.0031 13.4325 21.6003 13.3889 21.1355L13.2418 19.6792Z" fill="#A3A3A3"/>
</g>
</g>
<defs>
<clipPath id="clip0_246_1136">
<rect width="100" height="30" fill="white"/>
</clipPath>
<clipPath id="clip1_246_1136">
<rect width="100" height="29.0323" fill="white" transform="translate(0 0.483887)"/>
</clipPath>
</defs>
</svg>
